<?xml version="1.0" encoding="utf-8"?>
<!DOCTYPE svg PUBLIC "-//W3C//DTD SVG 20010904//EN" "http://www.w3.org/TR/2001/REC-SVG-20010904/DTD/svg10.dtd">
<svg xmlns="http://www.w3.org/2000/svg" xml:space="preserve" xmlns:xlink="http://www.w3.org/1999/xlink" width="494" height="39.714" viewBox="0 0 494 39.714">
<desc></desc>
<rect x="0" y="0" width="494" height="39.714" style="fill:#ffffff;" />
<line fill="none" style="stroke:#000000; stroke-width:1;" x1="0.5" y1="0" x2="0.5" y2="30"/>
<line fill="none" style="stroke:#000000; stroke-width:1;" x1="3.5" y1="0" x2="3.5" y2="30"/>
<line fill="none" style="stroke:#000000; stroke-width:2;" x1="6" y1="0" x2="6" y2="30"/>
<line fill="none" style="stroke:#000000; stroke-width:2;" x1="9" y1="0" x2="9" y2="30"/>
<line fill="none" style="stroke:#000000; stroke-width:1;" x1="11.5" y1="0" x2="11.5" y2="30"/>
<line fill="none" style="stroke:#000000; stroke-width:2;" x1="14" y1="0" x2="14" y2="30"/>
<line fill="none" style="stroke:#000000; stroke-width:2;" x1="17" y1="0" x2="17" y2="30"/>
<line fill="none" style="stroke:#000000; stroke-width:1;" x1="19.5" y1="0" x2="19.5" y2="30"/>
<line fill="none" style="stroke:#000000; stroke-width:1;" x1="22.5" y1="0" x2="22.5" y2="30"/>
<line fill="none" style="stroke:#000000; stroke-width:1;" x1="24.5" y1="0" x2="24.5" y2="30"/>
<line fill="none" style="stroke:#000000; stroke-width:1;" x1="26.5" y1="0" x2="26.5" y2="30"/>
<line fill="none" style="stroke:#000000; stroke-width:2;" x1="29" y1="0" x2="29" y2="30"/>
<line fill="none" style="stroke:#000000; stroke-width:1;" x1="32.5" y1="0" x2="32.5" y2="30"/>
<line fill="none" style="stroke:#000000; stroke-width:1;" x1="34.5" y1="0" x2="34.5" y2="30"/>
<line fill="none" style="stroke:#000000; stroke-width:2;" x1="37" y1="0" x2="37" y2="30"/>
<line fill="none" style="stroke:#000000; stroke-width:2;" x1="40" y1="0" x2="40" y2="30"/>
<line fill="none" style="stroke:#000000; stroke-width:1;" x1="42.5" y1="0" x2="42.5" y2="30"/>
<line fill="none" style="stroke:#000000; stroke-width:2;" x1="45" y1="0" x2="45" y2="30"/>
<line fill="none" style="stroke:#000000; stroke-width:1;" x1="48.5" y1="0" x2="48.5" y2="30"/>
<line fill="none" style="stroke:#000000; stroke-width:1;" x1="50.5" y1="0" x2="50.5" y2="30"/>
<line fill="none" style="stroke:#000000; stroke-width:1;" x1="52.5" y1="0" x2="52.5" y2="30"/>
<line fill="none" style="stroke:#000000; stroke-width:2;" x1="55" y1="0" x2="55" y2="30"/>
<line fill="none" style="stroke:#000000; stroke-width:1;" x1="58.5" y1="0" x2="58.5" y2="30"/>
<line fill="none" style="stroke:#000000; stroke-width:2;" x1="61" y1="0" x2="61" y2="30"/>
<line fill="none" style="stroke:#000000; stroke-width:1;" x1="63.5" y1="0" x2="63.5" y2="30"/>
<line fill="none" style="stroke:#000000; stroke-width:2;" x1="66" y1="0" x2="66" y2="30"/>
<line fill="none" style="stroke:#000000; stroke-width:1;" x1="68.5" y1="0" x2="68.5" y2="30"/>
<line fill="none" style="stroke:#000000; stroke-width:2;" x1="71" y1="0" x2="71" y2="30"/>
<line fill="none" style="stroke:#000000; stroke-width:1;" x1="74.5" y1="0" x2="74.5" y2="30"/>
<line fill="none" style="stroke:#000000; stroke-width:1;" x1="76.5" y1="0" x2="76.5" y2="30"/>
<line fill="none" style="stroke:#000000; stroke-width:1;" x1="78.5" y1="0" x2="78.5" y2="30"/>
<line fill="none" style="stroke:#000000; stroke-width:2;" x1="81" y1="0" x2="81" y2="30"/>
<line fill="none" style="stroke:#000000; stroke-width:2;" x1="85" y1="0" x2="85" y2="30"/>
<line fill="none" style="stroke:#000000; stroke-width:1;" x1="87.5" y1="0" x2="87.5" y2="30"/>
<line fill="none" style="stroke:#000000; stroke-width:1;" x1="89.5" y1="0" x2="89.5" y2="30"/>
<line fill="none" style="stroke:#000000; stroke-width:1;" x1="91.5" y1="0" x2="91.5" y2="30"/>
<line fill="none" style="stroke:#000000; stroke-width:2;" x1="94" y1="0" x2="94" y2="30"/>
<line fill="none" style="stroke:#000000; stroke-width:1;" x1="96.5" y1="0" x2="96.5" y2="30"/>
<line fill="none" style="stroke:#000000; stroke-width:1;" x1="99.5" y1="0" x2="99.5" y2="30"/>
<line fill="none" style="stroke:#000000; stroke-width:2;" x1="102" y1="0" x2="102" y2="30"/>
<line fill="none" style="stroke:#000000; stroke-width:1;" x1="104.5" y1="0" x2="104.5" y2="30"/>
<line fill="none" style="stroke:#000000; stroke-width:2;" x1="107" y1="0" x2="107" y2="30"/>
<line fill="none" style="stroke:#000000; stroke-width:1;" x1="110.5" y1="0" x2="110.5" y2="30"/>
<line fill="none" style="stroke:#000000; stroke-width:1;" x1="112.5" y1="0" x2="112.5" y2="30"/>
<line fill="none" style="stroke:#000000; stroke-width:2;" x1="115" y1="0" x2="115" y2="30"/>
<line fill="none" style="stroke:#000000; stroke-width:1;" x1="117.5" y1="0" x2="117.5" y2="30"/>
<line fill="none" style="stroke:#000000; stroke-width:1;" x1="120.5" y1="0" x2="120.5" y2="30"/>
<line fill="none" style="stroke:#000000; stroke-width:1;" x1="122.5" y1="0" x2="122.5" y2="30"/>
<line fill="none" style="stroke:#000000; stroke-width:2;" x1="125" y1="0" x2="125" y2="30"/>
<line fill="none" style="stroke:#000000; stroke-width:2;" x1="128" y1="0" x2="128" y2="30"/>
<line fill="none" style="stroke:#000000; stroke-width:1;" x1="130.5" y1="0" x2="130.5" y2="30"/>
<line fill="none" style="stroke:#000000; stroke-width:2;" x1="133" y1="0" x2="133" y2="30"/>
<line fill="none" style="stroke:#000000; stroke-width:1;" x1="135.5" y1="0" x2="135.5" y2="30"/>
<line fill="none" style="stroke:#000000; stroke-width:1;" x1="138.5" y1="0" x2="138.5" y2="30"/>
<line fill="none" style="stroke:#000000; stroke-width:2;" x1="141" y1="0" x2="141" y2="30"/>
<line fill="none" style="stroke:#000000; stroke-width:2;" x1="144" y1="0" x2="144" y2="30"/>
<line fill="none" style="stroke:#000000; stroke-width:2;" x1="147" y1="0" x2="147" y2="30"/>
<line fill="none" style="stroke:#000000; stroke-width:1;" x1="150.5" y1="0" x2="150.5" y2="30"/>
<line fill="none" style="stroke:#000000; stroke-width:1;" x1="152.5" y1="0" x2="152.5" y2="30"/>
<line fill="none" style="stroke:#000000; stroke-width:1;" x1="154.5" y1="0" x2="154.5" y2="30"/>
<line fill="none" style="stroke:#000000; stroke-width:1;" x1="156.5" y1="0" x2="156.5" y2="30"/>
<line fill="none" style="stroke:#000000; stroke-width:1;" x1="158.5" y1="0" x2="158.5" y2="30"/>
<line fill="none" style="stroke:#000000; stroke-width:2;" x1="161" y1="0" x2="161" y2="30"/>
<line fill="none" style="stroke:#000000; stroke-width:1;" x1="164.5" y1="0" x2="164.5" y2="30"/>
<line fill="none" style="stroke:#000000; stroke-width:2;" x1="167" y1="0" x2="167" y2="30"/>
<line fill="none" style="stroke:#000000; stroke-width:1;" x1="169.5" y1="0" x2="169.5" y2="30"/>
<line fill="none" style="stroke:#000000; stroke-width:1;" x1="171.5" y1="0" x2="171.5" y2="30"/>
<line fill="none" style="stroke:#000000; stroke-width:2;" x1="174" y1="0" x2="174" y2="30"/>
<line fill="none" style="stroke:#000000; stroke-width:1;" x1="177.5" y1="0" x2="177.5" y2="30"/>
<line fill="none" style="stroke:#000000; stroke-width:2;" x1="180" y1="0" x2="180" y2="30"/>
<line fill="none" style="stroke:#000000; stroke-width:1;" x1="182.5" y1="0" x2="182.5" y2="30"/>
<line fill="none" style="stroke:#000000; stroke-width:1;" x1="185.5" y1="0" x2="185.5" y2="30"/>
<line fill="none" style="stroke:#000000; stroke-width:1;" x1="187.5" y1="0" x2="187.5" y2="30"/>
<line fill="none" style="stroke:#000000; stroke-width:2;" x1="190" y1="0" x2="190" y2="30"/>
<line fill="none" style="stroke:#000000; stroke-width:2;" x1="193" y1="0" x2="193" y2="30"/>
<line fill="none" style="stroke:#000000; stroke-width:1;" x1="195.5" y1="0" x2="195.5" y2="30"/>
<line fill="none" style="stroke:#000000; stroke-width:1;" x1="197.5" y1="0" x2="197.5" y2="30"/>
<line fill="none" style="stroke:#000000; stroke-width:2;" x1="201" y1="0" x2="201" y2="30"/>
<line fill="none" style="stroke:#000000; stroke-width:1;" x1="203.5" y1="0" x2="203.5" y2="30"/>
<line fill="none" style="stroke:#000000; stroke-width:2;" x1="206" y1="0" x2="206" y2="30"/>
<line fill="none" style="stroke:#000000; stroke-width:1;" x1="208.5" y1="0" x2="208.5" y2="30"/>
<line fill="none" style="stroke:#000000; stroke-width:2;" x1="211" y1="0" x2="211" y2="30"/>
<line fill="none" style="stroke:#000000; stroke-width:1;" x1="213.5" y1="0" x2="213.5" y2="30"/>
<line fill="none" style="stroke:#000000; stroke-width:1;" x1="216.5" y1="0" x2="216.5" y2="30"/>
<line fill="none" style="stroke:#000000; stroke-width:2;" x1="219" y1="0" x2="219" y2="30"/>
<line fill="none" style="stroke:#000000; stroke-width:1;" x1="221.5" y1="0" x2="221.5" y2="30"/>
<line fill="none" style="stroke:#000000; stroke-width:1;" x1="223.5" y1="0" x2="223.5" y2="30"/>
<line fill="none" style="stroke:#000000; stroke-width:2;" x1="227" y1="0" x2="227" y2="30"/>
<line fill="none" style="stroke:#000000; stroke-width:2;" x1="230" y1="0" x2="230" y2="30"/>
<line fill="none" style="stroke:#000000; stroke-width:1;" x1="232.5" y1="0" x2="232.5" y2="30"/>
<line fill="none" style="stroke:#000000; stroke-width:2;" x1="235" y1="0" x2="235" y2="30"/>
<line fill="none" style="stroke:#000000; stroke-width:1;" x1="237.5" y1="0" x2="237.5" y2="30"/>
<line fill="none" style="stroke:#000000; stroke-width:1;" x1="239.5" y1="0" x2="239.5" y2="30"/>
<line fill="none" style="stroke:#000000; stroke-width:1;" x1="242.5" y1="0" x2="242.5" y2="30"/>
<line fill="none" style="stroke:#000000; stroke-width:2;" x1="245" y1="0" x2="245" y2="30"/>
<line fill="none" style="stroke:#000000; stroke-width:1;" x1="247.5" y1="0" x2="247.5" y2="30"/>
<line fill="none" style="stroke:#000000; stroke-width:1;" x1="250.5" y1="0" x2="250.5" y2="30"/>
<line fill="none" style="stroke:#000000; stroke-width:1;" x1="252.5" y1="0" x2="252.5" y2="30"/>
<line fill="none" style="stroke:#000000; stroke-width:2;" x1="255" y1="0" x2="255" y2="30"/>
<line fill="none" style="stroke:#000000; stroke-width:2;" x1="258" y1="0" x2="258" y2="30"/>
<line fill="none" style="stroke:#000000; stroke-width:1;" x1="260.5" y1="0" x2="260.5" y2="30"/>
<line fill="none" style="stroke:#000000; stroke-width:2;" x1="263" y1="0" x2="263" y2="30"/>
<line fill="none" style="stroke:#000000; stroke-width:1;" x1="266.5" y1="0" x2="266.5" y2="30"/>
<line fill="none" style="stroke:#000000; stroke-width:2;" x1="269" y1="0" x2="269" y2="30"/>
<line fill="none" style="stroke:#000000; stroke-width:1;" x1="271.5" y1="0" x2="271.5" y2="30"/>
<line fill="none" style="stroke:#000000; stroke-width:1;" x1="273.5" y1="0" x2="273.5" y2="30"/>
<line fill="none" style="stroke:#000000; stroke-width:2;" x1="276" y1="0" x2="276" y2="30"/>
<line fill="none" style="stroke:#000000; stroke-width:2;" x1="279" y1="0" x2="279" y2="30"/>
<line fill="none" style="stroke:#000000; stroke-width:1;" x1="282.5" y1="0" x2="282.5" y2="30"/>
<line fill="none" style="stroke:#000000; stroke-width:1;" x1="284.5" y1="0" x2="284.5" y2="30"/>
<line fill="none" style="stroke:#000000; stroke-width:1;" x1="286.5" y1="0" x2="286.5" y2="30"/>
<line fill="none" style="stroke:#000000; stroke-width:2;" x1="289" y1="0" x2="289" y2="30"/>
<line fill="none" style="stroke:#000000; stroke-width:1;" x1="291.5" y1="0" x2="291.5" y2="30"/>
<line fill="none" style="stroke:#000000; stroke-width:1;" x1="294.5" y1="0" x2="294.5" y2="30"/>
<line fill="none" style="stroke:#000000; stroke-width:2;" x1="297" y1="0" x2="297" y2="30"/>
<line fill="none" style="stroke:#000000; stroke-width:2;" x1="300" y1="0" x2="300" y2="30"/>
<line fill="none" style="stroke:#000000; stroke-width:1;" x1="302.5" y1="0" x2="302.5" y2="30"/>
<line fill="none" style="stroke:#000000; stroke-width:1;" x1="304.5" y1="0" x2="304.5" y2="30"/>
<line fill="none" style="stroke:#000000; stroke-width:1;" x1="307.5" y1="0" x2="307.5" y2="30"/>
<line fill="none" style="stroke:#000000; stroke-width:2;" x1="310" y1="0" x2="310" y2="30"/>
<line fill="none" style="stroke:#000000; stroke-width:1;" x1="312.5" y1="0" x2="312.5" y2="30"/>
<line fill="none" style="stroke:#000000; stroke-width:1;" x1="315.5" y1="0" x2="315.5" y2="30"/>
<line fill="none" style="stroke:#000000; stroke-width:1;" x1="317.5" y1="0" x2="317.5" y2="30"/>
<line fill="none" style="stroke:#000000; stroke-width:2;" x1="320" y1="0" x2="320" y2="30"/>
<line fill="none" style="stroke:#000000; stroke-width:2;" x1="323" y1="0" x2="323" y2="30"/>
<line fill="none" style="stroke:#000000; stroke-width:1;" x1="325.5" y1="0" x2="325.5" y2="30"/>
<line fill="none" style="stroke:#000000; stroke-width:2;" x1="328" y1="0" x2="328" y2="30"/>
<line fill="none" style="stroke:#000000; stroke-width:1;" x1="331.5" y1="0" x2="331.5" y2="30"/>
<line fill="none" style="stroke:#000000; stroke-width:2;" x1="334" y1="0" x2="334" y2="30"/>
<line fill="none" style="stroke:#000000; stroke-width:1;" x1="336.5" y1="0" x2="336.5" y2="30"/>
<line fill="none" style="stroke:#000000; stroke-width:2;" x1="339" y1="0" x2="339" y2="30"/>
<line fill="none" style="stroke:#000000; stroke-width:2;" x1="342" y1="0" x2="342" y2="30"/>
<line fill="none" style="stroke:#000000; stroke-width:1;" x1="344.5" y1="0" x2="344.5" y2="30"/>
<line fill="none" style="stroke:#000000; stroke-width:1;" x1="347.5" y1="0" x2="347.5" y2="30"/>
<line fill="none" style="stroke:#000000; stroke-width:1;" x1="349.5" y1="0" x2="349.5" y2="30"/>
<line fill="none" style="stroke:#000000; stroke-width:1;" x1="351.5" y1="0" x2="351.5" y2="30"/>
<line fill="none" style="stroke:#000000; stroke-width:1;" x1="353.5" y1="0" x2="353.5" y2="30"/>
<line fill="none" style="stroke:#000000; stroke-width:2;" x1="357" y1="0" x2="357" y2="30"/>
<line fill="none" style="stroke:#000000; stroke-width:2;" x1="360" y1="0" x2="360" y2="30"/>
<line fill="none" style="stroke:#000000; stroke-width:1;" x1="362.5" y1="0" x2="362.5" y2="30"/>
<line fill="none" style="stroke:#000000; stroke-width:1;" x1="364.5" y1="0" x2="364.5" y2="30"/>
<line fill="none" style="stroke:#000000; stroke-width:1;" x1="366.5" y1="0" x2="366.5" y2="30"/>
<line fill="none" style="stroke:#000000; stroke-width:2;" x1="370" y1="0" x2="370" y2="30"/>
<line fill="none" style="stroke:#000000; stroke-width:2;" x1="373" y1="0" x2="373" y2="30"/>
<line fill="none" style="stroke:#000000; stroke-width:1;" x1="375.5" y1="0" x2="375.5" y2="30"/>
<line fill="none" style="stroke:#000000; stroke-width:1;" x1="377.5" y1="0" x2="377.5" y2="30"/>
<line fill="none" style="stroke:#000000; stroke-width:1;" x1="379.5" y1="0" x2="379.5" y2="30"/>
<line fill="none" style="stroke:#000000; stroke-width:2;" x1="383" y1="0" x2="383" y2="30"/>
<line fill="none" style="stroke:#000000; stroke-width:2;" x1="386" y1="0" x2="386" y2="30"/>
<line fill="none" style="stroke:#000000; stroke-width:1;" x1="388.5" y1="0" x2="388.5" y2="30"/>
<line fill="none" style="stroke:#000000; stroke-width:2;" x1="391" y1="0" x2="391" y2="30"/>
<line fill="none" style="stroke:#000000; stroke-width:1;" x1="393.5" y1="0" x2="393.5" y2="30"/>
<line fill="none" style="stroke:#000000; stroke-width:1;" x1="396.5" y1="0" x2="396.5" y2="30"/>
<line fill="none" style="stroke:#000000; stroke-width:2;" x1="399" y1="0" x2="399" y2="30"/>
<line fill="none" style="stroke:#000000; stroke-width:1;" x1="401.5" y1="0" x2="401.5" y2="30"/>
<line fill="none" style="stroke:#000000; stroke-width:2;" x1="404" y1="0" x2="404" y2="30"/>
<line fill="none" style="stroke:#000000; stroke-width:1;" x1="406.5" y1="0" x2="406.5" y2="30"/>
<line fill="none" style="stroke:#000000; stroke-width:1;" x1="408.5" y1="0" x2="408.5" y2="30"/>
<line fill="none" style="stroke:#000000; stroke-width:1;" x1="411.5" y1="0" x2="411.5" y2="30"/>
<line fill="none" style="stroke:#000000; stroke-width:2;" x1="414" y1="0" x2="414" y2="30"/>
<line fill="none" style="stroke:#000000; stroke-width:2;" x1="417" y1="0" x2="417" y2="30"/>
<line fill="none" style="stroke:#000000; stroke-width:1;" x1="419.5" y1="0" x2="419.5" y2="30"/>
<line fill="none" style="stroke:#000000; stroke-width:1;" x1="421.5" y1="0" x2="421.5" y2="30"/>
<line fill="none" style="stroke:#000000; stroke-width:1;" x1="424.5" y1="0" x2="424.5" y2="30"/>
<line fill="none" style="stroke:#000000; stroke-width:2;" x1="427" y1="0" x2="427" y2="30"/>
<line fill="none" style="stroke:#000000; stroke-width:1;" x1="429.5" y1="0" x2="429.5" y2="30"/>
<line fill="none" style="stroke:#000000; stroke-width:1;" x1="431.5" y1="0" x2="431.5" y2="30"/>
<line fill="none" style="stroke:#000000; stroke-width:1;" x1="434.5" y1="0" x2="434.5" y2="30"/>
<line fill="none" style="stroke:#000000; stroke-width:2;" x1="437" y1="0" x2="437" y2="30"/>
<line fill="none" style="stroke:#000000; stroke-width:2;" x1="440" y1="0" x2="440" y2="30"/>
<line fill="none" style="stroke:#000000; stroke-width:1;" x1="442.5" y1="0" x2="442.5" y2="30"/>
<line fill="none" style="stroke:#000000; stroke-width:2;" x1="445" y1="0" x2="445" y2="30"/>
<line fill="none" style="stroke:#000000; stroke-width:1;" x1="448.5" y1="0" x2="448.5" y2="30"/>
<line fill="none" style="stroke:#000000; stroke-width:1;" x1="450.5" y1="0" x2="450.5" y2="30"/>
<line fill="none" style="stroke:#000000; stroke-width:2;" x1="453" y1="0" x2="453" y2="30"/>
<line fill="none" style="stroke:#000000; stroke-width:2;" x1="456" y1="0" x2="456" y2="30"/>
<line fill="none" style="stroke:#000000; stroke-width:2;" x1="459" y1="0" x2="459" y2="30"/>
<line fill="none" style="stroke:#000000; stroke-width:1;" x1="462.5" y1="0" x2="462.5" y2="30"/>
<line fill="none" style="stroke:#000000; stroke-width:1;" x1="464.5" y1="0" x2="464.5" y2="30"/>
<line fill="none" style="stroke:#000000; stroke-width:1;" x1="466.5" y1="0" x2="466.5" y2="30"/>
<line fill="none" style="stroke:#000000; stroke-width:1;" x1="468.5" y1="0" x2="468.5" y2="30"/>
<line fill="none" style="stroke:#000000; stroke-width:1;" x1="470.5" y1="0" x2="470.5" y2="30"/>
<line fill="none" style="stroke:#000000; stroke-width:2;" x1="474" y1="0" x2="474" y2="30"/>
<line fill="none" style="stroke:#000000; stroke-width:2;" x1="477" y1="0" x2="477" y2="30"/>
<line fill="none" style="stroke:#000000; stroke-width:1;" x1="479.5" y1="0" x2="479.5" y2="30"/>
<line fill="none" style="stroke:#000000; stroke-width:1;" x1="481.5" y1="0" x2="481.5" y2="30"/>
<line fill="none" style="stroke:#000000; stroke-width:1;" x1="484.5" y1="0" x2="484.5" y2="30"/>
<line fill="none" style="stroke:#000000; stroke-width:2;" x1="487" y1="0" x2="487" y2="30"/>
<line fill="none" style="stroke:#000000; stroke-width:2;" x1="490" y1="0" x2="490" y2="30"/>
<line fill="none" style="stroke:#000000; stroke-width:1;" x1="492.5" y1="0" x2="492.5" y2="30"/>
<text x="247" y="37.763" text-anchor="middle" style="font-family: Tahoma; font-size: 9px; stroke: none; fill:#000000;">C2E9E6B2-B3DD-4B0A-9FBA-9C0008AA7230</text></svg>